<?xml version="1.0" standalone="no"?>
<!DOCTYPE svg PUBLIC "-//W3C//DTD SVG 20010904//EN"
 "http://www.w3.org/TR/2001/REC-SVG-20010904/DTD/svg10.dtd">
<svg version="1.0" xmlns="http://www.w3.org/2000/svg"
 width="1024.000000pt" height="1024.000000pt" viewBox="0 0 1024.000000 1024.000000"
 preserveAspectRatio="xMidYMid meet">

<g transform="translate(0.000000,1024.000000) scale(0.100000,-0.100000)"
fill="#000000" stroke="none">
<path d="M0 5120 l0 -5120 5120 0 5120 0 0 5120 0 5120 -5120 0 -5120 0 0
-5120z m6870 4800 c190 -12 355 -25 368 -30 12 -5 29 -24 38 -42 15 -32 13
-38 -96 -348 -61 -173 -114 -317 -118 -321 -4 -4 -92 -53 -197 -109 -285 -154
-1013 -558 -1570 -872 -82 -46 -253 -142 -380 -213 -126 -71 -231 -129 -233
-130 -3 -3 77 -148 88 -159 5 -5 50 21 107 61 170 122 416 283 441 290 26 6
294 -69 827 -234 602 -185 730 -230 759 -264 43 -51 42 -60 -45 -429 -39 -162
-90 -385 -115 -495 -24 -110 -47 -207 -50 -216 -4 -13 18 -24 112 -54 64 -21
124 -46 133 -55 39 -41 174 -203 242 -290 158 -203 283 -429 333 -601 25 -87
61 -307 52 -316 -2 -3 -23 -2 -45 2 -34 6 -41 11 -41 30 0 12 -7 62 -15 111
-51 296 -195 554 -505 907 l-85 97 -142 46 c-79 25 -143 48 -143 51 0 9 130
584 190 838 32 138 61 264 65 281 6 30 4 32 -42 52 -82 34 -848 273 -1307 406
l-159 47 -111 -73 c-161 -107 -347 -239 -462 -331 l-101 -80 -58 -216 c-32
-119 -82 -308 -110 -419 l-53 -204 -71 84 c-40 45 -98 121 -130 168 -127 184
-326 572 -354 691 -6 23 1 31 78 83 46 32 88 55 94 52 6 -4 53 -82 105 -174
106 -188 193 -336 217 -370 14 -20 22 -22 53 -16 21 3 43 12 50 19 7 7 32 89
56 181 45 177 44 176 124 240 l39 31 -53 99 c-29 54 -78 142 -108 194 -58 98
-132 231 -132 235 0 2 9 5 20 8 11 3 131 72 267 155 136 82 383 229 548 327
165 98 521 309 790 470 925 552 1120 667 1132 669 7 1 15 5 18 8 7 7 -66 13
-390 34 l-260 16 -340 -212 c-187 -117 -378 -236 -425 -265 -123 -74 -938
-588 -1243 -783 -151 -96 -254 -168 -250 -174 3 -7 1 -8 -5 -4 -6 3 -25 32
-43 64 -95 167 -339 563 -364 590 -10 12 -43 -3 -187 -82 -215 -118 -213 -117
-205 -147 3 -13 83 -158 177 -322 93 -164 170 -301 170 -305 0 -4 -44 -35 -98
-69 -85 -55 -98 -60 -107 -46 -5 9 -20 28 -33 41 l-22 23 -33 -19 c-17 -11
-162 -90 -322 -177 -159 -87 -298 -165 -308 -173 -24 -21 -22 -28 53 -197 34
-77 84 -196 110 -265 l48 -125 40 3 c35 3 41 0 47 -20 17 -54 174 -397 256
-560 91 -180 241 -436 318 -544 l42 -59 -53 -3 c-62 -4 -45 -23 -181 201 -111
183 -242 436 -363 702 -79 174 -82 180 -115 187 -18 3 -41 16 -51 28 -9 11
-43 87 -74 168 -32 81 -86 212 -121 291 -35 79 -63 156 -63 170 0 45 35 87
107 129 37 22 149 83 248 137 99 54 228 124 287 156 58 33 115 59 125 59 10 0
33 -9 51 -20 39 -24 41 -24 71 -1 l23 18 -135 236 c-75 130 -147 258 -162 286
-32 64 -33 121 -2 155 30 34 419 246 451 246 13 0 39 -12 57 -27 36 -30 60
-68 248 -375 l132 -217 102 66 c56 36 275 175 487 308 212 133 633 397 935
587 659 414 698 438 705 438 3 0 160 -9 350 -20z m-2510 -1660 c6 -11 8 -20 6
-20 -3 0 -10 9 -16 20 -6 11 -8 20 -6 20 3 0 10 -9 16 -20z m1464 -1061 c4 -4
-73 -331 -79 -337 -3 -3 -285 67 -296 73 -6 4 49 251 72 321 l10 32 145 -43
c79 -23 146 -44 148 -46z m546 -155 c69 -19 129 -39 133 -43 6 -6 -59 -315
-70 -330 -1 -2 -63 13 -138 34 -112 32 -135 42 -135 58 0 30 71 317 79 317 3
0 63 -16 131 -36z m-2607 -1231 c-3 -54 -6 -103 -8 -109 -2 -7 -58 -9 -174 -6
l-171 5 0 -77 0 -76 145 0 145 0 0 -49 c0 -26 -3 -76 -6 -110 l-7 -61 -148 0
-149 0 0 -72 0 -73 181 3 182 3 -7 -47 c-3 -26 -6 -72 -6 -103 l0 -56 -306 -2
-305 -3 5 28 c2 15 8 88 11 162 3 74 12 241 20 370 8 129 15 265 16 303 l2 67
292 0 292 0 -4 -97z m464 -52 l66 -143 71 145 71 146 139 1 c117 0 137 -2 133
-15 -4 -8 -63 -104 -132 -214 -69 -110 -128 -206 -130 -214 -3 -7 53 -116 125
-241 71 -126 130 -231 130 -235 0 -3 -60 -6 -134 -6 l-135 0 -73 142 c-40 78
-76 139 -79 135 -4 -4 -39 -68 -79 -142 l-72 -135 -144 -3 c-79 -2 -144 0
-144 4 0 4 6 15 13 23 8 9 75 114 151 233 121 191 136 219 126 238 -6 12 -63
105 -126 207 -63 102 -119 194 -125 204 -10 19 -5 19 136 17 l147 -3 65 -144z
m1293 42 l0 -108 -125 0 -126 0 -2 -353 -2 -353 -123 -2 -122 -2 0 352 0 352
-35 7 c-20 3 -74 3 -120 -1 l-85 -7 0 111 0 111 370 0 370 0 0 -107z m626 82
c83 -24 144 -71 179 -139 27 -54 30 -68 30 -155 0 -88 -3 -101 -30 -150 -26
-48 -83 -102 -118 -114 -6 -2 32 -74 91 -170 56 -91 102 -167 102 -169 0 -2
-63 -1 -141 2 l-141 5 -80 138 -80 138 -42 -3 -41 -3 4 -137 4 -138 -127 0
-126 0 0 461 0 461 233 -7 c153 -4 249 -11 283 -20z m869 8 c7 -18 170 -493
265 -770 l49 -143 -127 0 -128 0 -23 70 -22 70 -143 0 -142 0 -13 -64 -13 -65
-124 -3 c-68 -2 -124 -1 -124 2 0 3 55 208 122 457 118 440 122 452 147 455
14 2 81 5 147 6 109 3 122 1 129 -15z m-4325 -1048 c-7 -45 -7 -46 -9 -13 -1
32 8 74 14 66 1 -2 -1 -25 -5 -53z m334 16 c-5 -44 -93 -1099 -102 -1226 -6
-77 -9 -90 -24 -89 -10 1 -91 2 -181 3 l-163 1 22 203 c12 111 24 228 27 260
l6 57 -152 2 -152 2 149 3 c82 2 153 0 158 -5 5 -5 -3 -114 -17 -243 -14 -129
-25 -242 -25 -251 0 -16 14 -18 164 -18 l165 0 6 53 c4 28 7 93 8 143 1 51 5
90 8 88 3 -2 9 45 13 104 3 59 8 123 11 142 7 54 65 739 65 766 0 18 -6 24
-22 25 -21 0 -22 1 -3 8 36 14 43 9 39 -28z m4260 -6 c3 -22 8 -92 12 -155 l6
-115 -226 0 -226 0 0 -71 c0 -39 3 -86 6 -103 l7 -31 197 0 198 0 6 -117 c4
-65 8 -133 11 -150 l4 -33 -205 0 -204 0 0 -67 c0 -38 3 -85 6 -105 l7 -38
245 -2 c209 -3 245 -5 247 -18 1 -8 6 -80 10 -160 l7 -145 -435 0 -435 0 -6
100 c-3 55 -8 159 -11 230 -9 212 -34 771 -41 900 l-6 120 410 0 410 0 6 -40z
m-5214 31 c0 -3 -4 -8 -10 -11 -5 -3 -10 -1 -10 4 0 6 5 11 10 11 6 0 10 -2
10 -4z m309 -23 c-2 -24 -2 -24 -6 -6 -4 21 -9 23 -126 26 l-122 3 128 2 127
2 -1 -27z m554 20 c-7 -2 -19 -2 -25 0 -7 3 -2 5 12 5 14 0 19 -2 13 -5z
m1094 -99 c-4 -59 -7 -129 -7 -156 l0 -48 -234 0 -234 0 -6 -67 c-4 -38 -8
-83 -11 -100 l-4 -33 210 0 209 0 -5 -52 c-2 -29 -7 -97 -11 -150 l-6 -98
-203 0 -203 0 -6 -27 c-3 -16 -8 -63 -12 -105 l-6 -78 252 0 251 0 -6 -152
c-4 -84 -8 -159 -11 -166 -3 -10 -94 -12 -434 -12 l-430 1 0 34 c0 37 75 1017
90 1185 6 58 10 110 10 115 0 6 145 11 407 13 l406 4 -6 -108z m538 4 c-9
-154 -35 -802 -35 -859 l0 -49 245 0 245 0 0 -170 0 -170 -428 0 c-236 0 -431
2 -433 4 -2 3 5 227 17 498 12 271 25 573 29 671 l7 177 179 0 180 0 -6 -102z
m1289 82 c224 -57 379 -210 433 -426 24 -99 25 -374 0 -464 -58 -218 -193
-355 -404 -412 -69 -18 -113 -21 -389 -25 l-311 -5 -5 28 c-2 16 -5 320 -7
677 l-3 647 304 0 c271 0 313 -2 382 -20z m-3177 -147 c-2 -16 -4 -5 -4 22 0
28 2 40 4 28 2 -13 2 -35 0 -50z m-320 -50 c-3 -10 -5 -2 -5 17 0 19 2 27 5
18 2 -10 2 -26 0 -35z m310 -55 c-2 -13 -4 -3 -4 22 0 25 2 35 4 23 2 -13 2
-33 0 -45z m-320 -40 c-3 -7 -5 -2 -5 12 0 14 2 19 5 13 2 -7 2 -19 0 -25z
m308 -87 c-4 -51 -10 -90 -12 -87 -3 3 -2 46 2 96 4 50 9 89 12 86 3 -2 1 -45
-2 -95z m-318 -3 c-2 -13 -4 -5 -4 17 -1 22 1 32 4 23 2 -10 2 -28 0 -40z
m236 -105 c-35 -2 -91 -2 -125 0 -35 2 -7 3 62 3 69 0 97 -1 63 -3z m337 -605
c0 -19 -2 -20 -10 -8 -13 19 -13 30 0 30 6 0 10 -10 10 -22z m-13 -125 c-3
-10 -5 -4 -5 12 0 17 2 24 5 18 2 -7 2 -21 0 -30z m-60 -62 c0 -11 -5 -18 -9
-15 -4 3 -5 11 -1 19 7 21 12 19 10 -4z m913 -305 c0 -2 -45 -131 -101 -287
-314 -885 -442 -1263 -544 -1615 -48 -163 -105 -389 -105 -411 0 -10 155 -13
785 -13 l784 0 6 38 c69 419 246 1057 492 1762 l78 224 188 1 187 0 64 -195
c155 -471 270 -888 357 -1295 24 -111 99 -515 99 -531 0 -2 322 -4 715 -4
l715 0 -6 28 c-52 229 -150 586 -339 1237 -84 292 -185 643 -224 780 -39 138
-74 258 -77 268 -5 14 1 17 40 17 25 0 46 -2 46 -3 0 -2 43 -152 95 -333 53
-181 154 -529 225 -774 219 -757 318 -1136 322 -1230 1 -34 -3 -47 -21 -62
-22 -17 -59 -18 -776 -18 -702 0 -754 1 -774 18 -18 14 -26 47 -51 195 -90
530 -237 1104 -445 1735 l-28 82 -126 0 -127 0 -132 -402 c-243 -745 -341
-1102 -402 -1463 -14 -88 -25 -124 -40 -140 -20 -20 -29 -20 -847 -23 -929 -3
-873 -7 -873 69 0 87 113 497 262 949 83 253 228 669 408 1175 39 110 73 206
75 213 4 11 95 19 95 8z"/>
<path d="M3997 7576 c-17 -13 -15 -22 45 -148 90 -188 220 -419 290 -516 33
-46 62 -81 65 -79 3 3 63 222 63 231 0 1 -19 0 -43 -2 -36 -3 -49 1 -76 23
-33 28 -154 224 -248 403 -30 56 -60 102 -66 102 -7 0 -20 -7 -30 -14z"/>
<path d="M5298 5713 c12 -2 30 -2 40 0 9 3 -1 5 -23 4 -22 0 -30 -2 -17 -4z"/>
<path d="M5793 5883 c15 -2 37 -2 50 0 12 2 0 4 -28 4 -27 0 -38 -2 -22 -4z"/>
<path d="M5913 5883 c26 -2 68 -2 95 0 26 2 4 3 -48 3 -52 0 -74 -1 -47 -3z"/>
<path d="M6098 5873 c7 -3 16 -2 19 1 4 3 -2 6 -13 5 -11 0 -14 -3 -6 -6z"/>
<path d="M5870 5585 l0 -125 58 0 c80 0 126 15 157 52 24 28 27 39 23 87 -4
41 -11 59 -27 72 -31 25 -85 39 -153 39 l-58 0 0 -125z"/>
<path d="M6778 5883 c34 -2 88 -2 120 0 31 2 3 3 -63 3 -66 0 -92 -1 -57 -3z"/>
<path d="M6827 5512 c-21 -97 -37 -179 -37 -182 0 -3 41 -6 90 -6 50 -1 90 2
90 6 0 4 -9 33 -21 66 -11 32 -34 111 -50 174 -16 62 -31 115 -33 117 -1 2
-19 -77 -39 -175z"/>
<path d="M6474 4858 c3 -13 6 -62 6 -109 0 -69 3 -88 15 -93 13 -4 13 -2 5 14
-14 25 -13 140 1 140 6 0 9 -5 7 -12 -7 -20 39 -60 61 -53 12 3 21 11 21 16 0
11 -23 7 -32 -6 -4 -5 -10 -6 -14 -2 -7 7 44 66 59 67 4 0 7 -6 7 -13 0 -8 12
-20 28 -28 15 -7 30 -15 33 -16 3 -2 6 3 6 11 0 8 -4 13 -9 10 -5 -4 -12 3
-15 15 -3 13 -13 21 -25 21 -15 0 -19 5 -16 18 4 12 -1 18 -14 19 -15 2 -17
-1 -9 -11 6 -7 8 -16 4 -19 -11 -12 -21 -7 -26 13 -3 11 -11 20 -17 20 -10 0
-10 -4 0 -15 7 -9 9 -19 5 -23 -4 -4 -10 -1 -12 6 -3 6 -9 9 -14 6 -6 -4 -6
-11 1 -19 7 -8 10 -22 8 -32 -3 -13 -7 -10 -15 14 -9 25 -8 35 4 52 14 20 23
22 124 20 60 -1 109 -5 109 -10 0 -5 -4 -9 -8 -9 -5 0 -9 -6 -9 -13 0 -8 6
-14 13 -14 7 0 11 4 9 8 -12 19 9 39 39 38 21 -1 25 -3 11 -6 -21 -5 -35 -21
-35 -38 0 -5 4 -3 10 5 13 21 24 5 16 -25 -6 -22 -9 -24 -29 -15 -21 11 -21
10 2 -10 22 -19 23 -22 7 -38 -24 -27 -20 -38 6 -16 21 19 21 19 15 -1 -6 -17
-5 -18 5 -4 7 9 19 14 26 12 6 -3 12 -1 12 5 0 5 7 9 15 9 8 0 15 -4 15 -9 0
-4 5 -8 11 -8 6 0 8 9 4 20 -4 11 -2 20 4 20 6 0 11 7 11 15 0 22 -16 18 -27
-7 -6 -15 -12 -18 -17 -10 -4 7 -2 12 3 12 6 0 11 6 11 14 0 20 30 29 36 11 3
-8 14 -17 25 -20 19 -6 17 -25 -2 -25 -6 0 -7 5 -4 10 9 15 -11 12 -24 -3 -8
-10 -7 -17 1 -25 7 -7 8 -12 2 -12 -5 0 -3 -4 5 -9 9 -6 10 -11 2 -15 -6 -4
-11 -2 -11 3 0 6 -7 11 -15 11 -19 0 -19 -7 1 -28 15 -15 18 -14 35 7 18 22
24 20 19 -4 -1 -5 5 -4 12 3 11 11 9 16 -11 31 -23 18 -23 18 -3 23 15 4 19 2
15 -8 -6 -17 9 -18 26 -1 11 10 13 10 7 0 -5 -9 0 -13 16 -13 18 0 20 -2 8
-10 -10 -6 -15 -26 -15 -54 -1 -25 2 -43 5 -41 3 2 12 0 20 -6 11 -6 2 -9 -27
-9 -45 0 -58 14 -23 25 19 6 23 24 6 36 -4 4 -3 16 3 27 7 14 8 23 1 27 -5 3
-10 -3 -10 -13 0 -11 -7 -22 -15 -26 -21 -7 -19 -26 2 -26 14 0 13 -3 -5 -16
-12 -8 -20 -20 -16 -25 8 -13 -59 -8 -68 6 -5 6 -8 6 -8 -2 0 -7 -4 -13 -8
-13 -15 0 -7 37 11 55 19 18 13 39 -9 31 -8 -3 -14 -1 -14 4 0 6 5 10 10 10 6
0 10 5 10 11 0 6 -9 8 -22 3 -32 -9 -33 -12 -15 -32 22 -24 21 -33 0 -25 -17
6 -17 5 -2 -13 16 -20 15 -54 -3 -54 -5 0 -7 7 -4 16 11 29 -6 36 -31 12 -18
-17 -22 -18 -17 -5 3 9 11 17 17 17 6 0 8 2 5 5 -3 3 -16 1 -29 -4 -13 -5 -19
-10 -12 -10 7 -1 10 -7 7 -15 -3 -8 -1 -17 5 -21 6 -3 11 -1 11 4 0 21 18 11
28 -16 27 -71 22 -136 -7 -85 -9 15 -10 15 -8 -5 0 -12 4 -21 7 -21 22 2 27
-7 26 -54 0 -28 4 -53 10 -55 6 -2 7 38 2 109 -4 61 -5 115 -2 120 3 4 106 8
230 8 l224 0 -5 53 c-2 28 -7 91 -11 140 l-6 87 -400 0 -400 0 6 -22z m45 -1
c-9 -7 -18 -19 -22 -27 -4 -11 -6 -9 -6 6 -1 25 7 34 28 34 15 -1 15 -2 0 -13z
m411 2 c0 -5 -4 -8 -9 -4 -6 3 -15 -4 -21 -15 -6 -11 -16 -20 -23 -19 -9 0 -9
2 1 6 6 2 12 12 11 21 0 11 -2 12 -6 4 -5 -13 -23 -7 -23 9 0 5 16 9 35 9 19
0 35 -5 35 -11z m27 -3 c-3 -8 -1 -17 6 -19 7 -2 9 -8 5 -12 -4 -4 -15 -2 -25
6 -15 12 -16 12 -10 -3 4 -12 2 -15 -9 -11 -18 7 -18 9 4 32 20 23 36 27 29 7z
m63 3 c0 -6 -6 -9 -14 -6 -11 4 -13 -1 -10 -21 5 -26 5 -26 -10 -7 -10 14 -11
24 -4 32 13 16 38 17 38 2z m53 4 c3 -5 -6 -8 -19 -8 -13 0 -24 3 -24 8 0 4 9
7 19 7 11 0 22 -3 24 -7z m-217 -42 c-4 -6 -14 -7 -23 -4 -15 6 -14 7 3 13 22
9 29 6 20 -9z m245 -14 c-10 -9 -11 -8 -5 6 3 10 9 15 12 12 3 -3 0 -11 -7
-18z m-117 -6 c4 -5 -3 -7 -14 -4 -23 6 -26 13 -6 13 8 0 17 -4 20 -9z m-159
-41 c3 -5 1 -10 -4 -10 -6 0 -11 5 -11 10 0 6 2 10 4 10 3 0 8 -4 11 -10z
m295 -40 c0 -5 -5 -10 -11 -10 -5 0 -7 5 -4 10 3 6 8 10 11 10 2 0 4 -4 4 -10z
m-50 -31 c0 -6 8 -8 18 -5 16 6 16 5 -1 -8 -16 -12 -16 -15 -1 -27 14 -12 13
-14 -7 -21 -15 -6 -25 -5 -27 1 -2 5 -10 7 -19 4 -11 -4 -14 -2 -9 5 4 7 17 9
33 5 24 -5 25 -4 12 9 -7 9 -20 13 -26 11 -7 -3 -13 0 -13 7 0 6 5 8 10 5 6
-3 10 1 10 9 0 9 5 16 10 16 6 0 10 -5 10 -11z m37 -75 c-3 -3 -12 -4 -19 -1
-8 3 -5 6 6 6 11 1 17 -2 13 -5z"/>
<path d="M6655 4827 c11 -17 24 -26 32 -23 10 4 13 1 8 -13 -4 -13 0 -23 12
-30 11 -6 13 -11 5 -11 -7 0 -10 -5 -7 -10 4 -6 11 -7 17 -4 7 4 8 2 4 -5 -4
-6 -12 -9 -17 -6 -5 4 -16 -1 -25 -9 -14 -15 -14 -16 5 -13 11 2 24 6 27 10 4
4 14 7 22 7 11 0 12 -3 3 -14 -9 -11 -8 -15 5 -20 9 -4 18 -5 20 -3 7 7 -41
87 -53 87 -17 0 -16 15 2 34 17 17 19 32 5 41 -5 3 -7 0 -4 -8 3 -8 1 -18 -5
-21 -5 -4 -12 3 -16 14 -3 11 -11 20 -18 20 -8 0 -8 -3 1 -12 24 -24 11 -31
-14 -7 l-27 24 18 -28z"/>
<path d="M6735 4800 c-7 -12 23 -65 32 -57 2 3 -1 16 -8 29 -7 12 -12 26 -11
31 3 11 -6 9 -13 -3z"/>
<path d="M6590 4786 c0 -8 5 -18 11 -22 8 -4 7 -9 -2 -16 -11 -7 -11 -11 -1
-15 6 -2 10 -9 7 -14 -4 -5 0 -7 7 -4 19 8 16 61 -4 74 -14 9 -18 8 -18 -3z"/>
<path d="M6505 4740 c-1 -31 9 -40 18 -16 3 8 0 21 -6 30 -10 14 -12 12 -12
-14z"/>
<path d="M6645 4740 c10 -11 23 -20 28 -20 6 0 2 9 -8 20 -10 11 -23 20 -28
20 -6 0 -2 -9 8 -20z"/>
<path d="M6530 4715 c0 -2 10 -10 23 -16 20 -11 21 -11 8 4 -13 16 -31 23 -31
12z"/>
<path d="M6639 4701 c13 -8 13 -12 1 -28 -13 -17 -13 -17 4 -1 19 16 15 38 -7
38 -8 0 -7 -4 2 -9z"/>
<path d="M6500 4692 c0 -5 7 -9 15 -9 8 0 12 4 9 9 -3 4 -9 8 -15 8 -5 0 -9
-4 -9 -8z"/>
<path d="M6605 4690 c3 -5 8 -10 11 -10 2 0 4 5 4 10 0 6 -5 10 -11 10 -5 0
-7 -4 -4 -10z"/>
<path d="M6784 4684 c4 -24 22 -29 30 -7 4 9 4 14 0 10 -4 -4 -13 -2 -20 4 -9
7 -12 6 -10 -7z"/>
<path d="M6690 4681 c0 -6 -3 -10 -8 -8 -11 3 -57 -42 -49 -50 4 -3 7 -1 7 6
0 8 6 11 16 7 8 -3 12 -2 9 4 -3 5 6 15 21 23 17 9 23 17 15 21 -6 4 -11 2
-11 -3z"/>
<path d="M6924 4675 c-12 -9 -14 -14 -5 -15 8 0 11 -6 7 -16 -3 -8 -2 -13 3
-10 7 5 22 56 17 56 -1 0 -11 -7 -22 -15z"/>
<path d="M6725 4669 c4 -6 -2 -13 -14 -16 -30 -8 -26 -21 4 -15 25 4 37 42 14
42 -5 0 -7 -5 -4 -11z"/>
<path d="M6890 4668 c0 -9 -6 -19 -12 -21 -7 -3 -3 -6 10 -6 24 -1 27 6 12 29
-8 13 -10 13 -10 -2z"/>
<path d="M6490 4515 c0 -65 3 -115 7 -111 8 8 7 215 -1 224 -3 3 -6 -48 -6
-113z"/>
<path d="M6726 4607 c-16 -12 -16 -14 -3 -14 9 0 18 6 21 14 3 7 4 13 3 13 -2
0 -11 -6 -21 -13z"/>
<path d="M6670 4590 c0 -6 4 -9 9 -5 5 3 12 -2 14 -10 4 -12 5 -12 3 1 -1 19
-26 32 -26 14z"/>
<path d="M6630 4580 c0 -6 7 -10 15 -10 8 0 15 2 15 4 0 2 -7 6 -15 10 -8 3
-15 1 -15 -4z"/>
<path d="M6605 4570 c3 -5 8 -10 11 -10 2 0 4 5 4 10 0 6 -5 10 -11 10 -5 0
-7 -4 -4 -10z"/>
<path d="M6756 4564 c-4 -9 -4 -19 -1 -22 2 -3 7 3 11 12 4 9 4 19 1 22 -2 3
-7 -3 -11 -12z"/>
<path d="M6783 4565 c0 -8 4 -15 9 -15 4 0 8 7 8 15 0 8 -4 15 -8 15 -5 0 -9
-7 -9 -15z"/>
<path d="M6780 4536 c0 -2 7 -7 16 -10 8 -3 12 -2 9 4 -6 10 -25 14 -25 6z"/>
<path d="M6760 4521 c0 -6 4 -13 10 -16 6 -3 7 1 4 9 -7 18 -14 21 -14 7z"/>
<path d="M6700 4506 c0 -2 7 -7 16 -10 8 -3 12 -2 9 4 -6 10 -25 14 -25 6z"/>
<path d="M6547 4449 c7 -7 15 -10 18 -7 3 3 -2 9 -12 12 -14 6 -15 5 -6 -5z"/>
<path d="M6801 4424 c0 -11 3 -14 6 -6 3 7 2 16 -1 19 -3 4 -6 -2 -5 -13z"/>
<path d="M6503 4330 c0 -36 2 -50 4 -32 2 17 2 47 0 65 -2 17 -4 3 -4 -33z"/>
<path d="M6880 4361 c0 -10 40 -19 58 -13 25 8 11 22 -23 22 -19 0 -35 -4 -35
-9z"/>
<path d="M6975 4360 c-16 -6 -15 -9 10 -28 15 -12 25 -25 22 -29 -4 -3 -16 2
-26 11 -11 10 -26 16 -33 13 -11 -4 -11 -6 0 -6 7 -1 10 -5 7 -11 -3 -6 1 -7
9 -4 9 3 16 1 16 -5 0 -6 -3 -11 -8 -11 -4 0 -12 -8 -19 -19 -10 -15 -9 -18 5
-17 9 0 16 -5 15 -11 -2 -7 2 -13 7 -13 6 0 10 -8 10 -17 0 -15 -2 -16 -10 -3
-7 12 -9 10 -8 -7 2 -13 7 -19 16 -15 8 3 12 14 9 28 -3 17 0 24 12 24 9 1 3
7 -14 14 -21 10 -26 15 -15 19 43 15 72 -10 48 -42 -7 -9 -8 -13 -4 -9 5 5 16
-1 24 -13 12 -18 12 -22 -4 -40 -13 -15 -15 -22 -6 -31 9 -9 12 -7 12 8 0 15
2 16 9 4 6 -8 7 -18 5 -22 -8 -12 19 -5 29 7 4 6 10 5 16 -3 7 -11 9 -11 14 2
9 22 26 20 24 -3 0 -11 -4 -18 -8 -15 -4 2 -18 0 -31 -5 -17 -7 0 -10 66 -10
l89 -1 -7 92 c-3 50 -6 111 -6 135 l0 44 -82 -3 c-72 -3 -83 -5 -82 -20 1 -10
-3 -15 -8 -12 -5 3 -7 13 -4 20 5 12 -3 14 -37 13 -24 -2 -52 -5 -62 -9z m40
-18 c-3 -3 -11 0 -18 7 -9 10 -8 11 6 5 10 -3 15 -9 12 -12z m25 -34 c0 -19
-2 -20 -10 -8 -13 19 -13 30 0 30 6 0 10 -10 10 -22z m40 -25 c0 -9 3 -13 7
-10 3 4 12 2 19 -3 13 -12 8 -44 -13 -77 -10 -14 -11 -23 -4 -28 6 -3 11 1 11
10 0 13 2 14 14 3 18 -17 11 -28 -19 -28 -35 0 -39 16 -15 57 16 27 17 34 5
30 -8 -4 -15 -2 -15 4 0 6 -5 7 -11 3 -8 -4 -7 -9 2 -15 7 -4 10 -11 6 -15
-11 -11 -18 0 -22 36 -4 31 -3 32 14 16 19 -17 56 -22 46 -6 -4 6 -10 8 -15 5
-5 -3 -14 4 -20 15 -7 13 -7 20 0 20 5 0 10 -7 10 -17z m115 -13 c-4 -6 -1
-17 5 -25 7 -9 8 -15 2 -15 -12 0 -24 29 -16 41 3 5 7 9 10 9 3 0 2 -5 -1 -10z
m-25 -4 c0 -3 -4 -8 -10 -11 -5 -3 -10 -1 -10 4 0 6 5 11 10 11 6 0 10 -2 10
-4z m-30 -26 c0 -5 -5 -10 -11 -10 -5 0 -7 5 -4 10 3 6 8 10 11 10 2 0 4 -4 4
-10z m2 -32 c-10 -10 -8 -16 10 -31 l23 -18 -25 12 c-32 15 -42 31 -27 41 19
12 32 9 19 -4z m28 -8 c0 -5 -5 -10 -11 -10 -5 0 -7 5 -4 10 3 6 8 10 11 10 2
0 4 -4 4 -10z m30 -5 c0 -8 -4 -15 -10 -15 -5 0 -7 7 -4 15 4 8 8 15 10 15 2
0 4 -7 4 -15z m-19 -64 c-11 -7 -10 -10 5 -14 16 -4 16 -5 -3 -6 -23 -1 -30 9
-16 22 3 4 11 7 17 7 6 0 5 -4 -3 -9z"/>
<path d="M6791 4334 c0 -11 3 -14 6 -6 3 7 2 16 -1 19 -3 4 -6 -2 -5 -13z"/>
<path d="M6860 4320 c0 -5 5 -10 11 -10 5 0 7 5 4 10 -3 6 -8 10 -11 10 -2 0
-4 -4 -4 -10z"/>
<path d="M6880 4300 c-9 -6 -10 -10 -3 -10 6 0 15 5 18 10 8 12 4 12 -15 0z"/>
<path d="M6898 4243 c7 -3 16 -2 19 1 4 3 -2 6 -13 5 -11 0 -14 -3 -6 -6z"/>
<path d="M6505 4220 c3 -5 8 -10 11 -10 2 0 4 5 4 10 0 6 -5 10 -11 10 -5 0
-7 -4 -4 -10z"/>
<path d="M6947 4203 c-4 -3 -7 -11 -7 -17 0 -6 5 -5 12 2 6 6 9 14 7 17 -3 3
-9 2 -12 -2z"/>
<path d="M7013 4150 c2 -8 0 -23 -5 -32 -5 -11 -5 -18 1 -18 15 0 22 31 10 48
-7 13 -9 13 -6 2z"/>
<path d="M6510 4065 c0 -49 3 -85 6 -82 7 7 6 159 -2 166 -2 2 -4 -35 -4 -84z"/>
<path d="M6968 4133 c7 -3 16 -2 19 1 4 3 -2 6 -13 5 -11 0 -14 -3 -6 -6z"/>
<path d="M6918 4103 c12 -2 32 -2 45 0 12 2 2 4 -23 4 -25 0 -35 -2 -22 -4z"/>
<path d="M7043 4103 c9 -2 23 -2 30 0 6 3 -1 5 -18 5 -16 0 -22 -2 -12 -5z"/>
<path d="M6854 3965 c0 -55 1 -76 3 -47 2 29 2 74 0 100 -2 26 -3 2 -3 -53z"/>
<path d="M6524 3845 c0 -49 1 -71 3 -48 2 23 2 64 0 90 -2 26 -3 8 -3 -42z"/>
<path d="M6890 3843 c0 -5 25 -7 55 -7 42 1 55 -2 58 -15 4 -14 5 -14 6 1 2
26 160 21 189 -5 24 -22 35 -77 15 -77 -15 0 -17 -16 -3 -25 13 -8 13 -25 -1
-25 -5 0 -8 4 -5 9 3 5 -1 11 -9 15 -19 7 -20 36 -1 36 19 0 6 60 -16 74 -26
16 -36 -4 -10 -21 12 -9 22 -20 22 -25 0 -7 -5 -7 -13 0 -19 16 -15 -34 7 -82
l17 -38 30 28 c16 15 29 22 29 16 0 -7 -4 -12 -10 -12 -5 0 -9 -3 -9 -7 3 -19
-2 -36 -8 -30 -3 4 -12 2 -19 -4 -10 -8 -19 -6 -36 5 -12 9 -17 16 -10 16 6 0
12 5 12 11 0 8 -4 8 -12 1 -7 -6 -17 -10 -21 -10 -5 0 -12 -4 -15 -8 -4 -4 -2
-4 4 -1 20 11 44 -28 35 -57 0 -3 -14 -1 -29 4 -21 5 -29 4 -29 -5 0 -7 6 -11
14 -8 7 3 13 -2 13 -11 0 -14 -31 -16 -300 -16 l-299 0 -4 73 -3 72 -2 -77 -2
-78 426 0 425 0 -6 83 c-3 45 -8 110 -11 145 l-6 62 -234 0 c-129 0 -234 -3
-234 -7z m344 -18 c-4 -8 -8 -15 -10 -15 -2 0 -4 7 -4 15 0 8 4 15 10 15 5 0
7 -7 4 -15z m46 -15 c0 -5 -2 -10 -4 -10 -3 0 -8 5 -11 10 -3 6 -1 10 4 10 6
0 11 -4 11 -10z m-30 -20 c0 -5 -2 -10 -4 -10 -3 0 -8 5 -11 10 -3 6 -1 10 4
10 6 0 11 -4 11 -10z m10 -40 c0 -5 -4 -10 -10 -10 -5 0 -10 5 -10 10 0 6 5
10 10 10 6 0 10 -4 10 -10z m17 -22 c-3 -8 -6 -5 -6 6 -1 11 2 17 5 13 3 -3 4
-12 1 -19z m3 -48 c0 -5 -5 -10 -11 -10 -5 0 -7 5 -4 10 3 6 8 10 11 10 2 0 4
-4 4 -10z m0 -35 c0 -8 -7 -15 -15 -15 -26 0 -18 20 13 29 1 1 2 -6 2 -14z
m-34 -28 c4 -4 0 -7 -9 -7 -9 0 -17 -5 -17 -11 0 -5 -4 -7 -10 -4 -6 4 -7 -1
-3 -12 6 -16 5 -17 -12 -3 -10 8 -16 10 -12 3 5 -8 0 -11 -13 -10 -26 2 -25 3
8 32 26 23 53 27 68 12z m34 -28 c0 -15 -6 -19 -30 -17 -16 1 -30 5 -30 8 0
14 14 19 30 10 15 -8 17 -6 12 12 -3 14 -1 19 6 14 7 -4 12 -16 12 -27z m27
-4 c0 -8 -4 -15 -9 -15 -4 0 -8 7 -8 15 0 8 4 15 8 15 5 0 9 -7 9 -15z m57 -1
c3 -8 2 -12 -4 -9 -6 3 -10 10 -10 16 0 14 7 11 14 -7z"/>
<path d="M7065 3820 c-3 -5 -1 -10 4 -10 6 0 11 5 11 10 0 6 -2 10 -4 10 -3 0
-8 -4 -11 -10z"/>
<path d="M7069 3783 c-13 -16 -12 -17 4 -4 16 13 21 21 13 21 -2 0 -10 -8 -17
-17z"/>
<path d="M7110 3790 c0 -5 10 -10 23 -10 18 0 19 2 7 10 -19 13 -30 13 -30 0z"/>
<path d="M7016 3773 c-6 -14 -5 -15 5 -6 7 7 10 15 7 18 -3 3 -9 -2 -12 -12z"/>
<path d="M7120 3714 c-16 -10 -18 -13 -6 -9 11 3 23 0 28 -7 5 -9 8 -6 8 10 0
26 2 25 -30 6z"/>
<path d="M5540 4231 l0 -361 78 0 c153 0 248 55 294 168 19 49 22 74 22 187
-1 110 -4 139 -23 188 -48 122 -115 166 -271 174 l-100 6 0 -362z"/>
</g>
</svg>
